Coordinates
version=1
nRows=24
nColumns=24
inDegrees=yes

Units are S.I. units (second, meters, Newtons, ...)
Angles are in degrees.

endheader
time	pelvis_tilt	pelvis_list	pelvis_rotation	pelvis_tx	pelvis_ty	pelvis_tz	hip_flexion_r	hip_adduction_r	hip_rotation_r	knee_angle_r	ankle_angle_r	subtalar_angle_r	mtp_angle_r	hip_flexion_l	hip_adduction_l	hip_rotation_l	knee_angle_l	ankle_angle_l	subtalar_angle_l	mtp_angle_l	lumbar_extension	lumbar_bending	lumbar_rotation
      4.47000000	    -11.88373741	      0.59372864	     -4.15320976	      0.19718473	     -0.00745125	      0.00281067	      1.96125565	      4.40556673	      5.01072804	     -3.47408129	      1.48731032	      0.38024182	      9.17560109	     34.93747170	     -6.64648619	    -17.74501734	    -39.66910129	     -6.09606717	      5.87346340	     19.59327115	      9.97676227	      1.41415576	      8.60657714
      4.47500000	    -11.93430556	      0.66399822	     -4.23474666	      0.20196852	     -0.00805010	      0.00301103	      1.74599406	      4.32740283	      5.07089111	     -3.51917262	      1.65768196	      0.39586449	      9.30508851	     35.18763063	     -6.45867424	    -17.86556870	    -38.42795820	     -6.08764208	      6.06428212	     19.40905203	      9.98157265	      1.31573147	      8.63838491
      4.48000000	    -11.95863885	      0.76276802	     -4.36817051	      0.20679035	     -0.00862114	      0.00324429	      1.50633223	      4.21288960	      5.16713853	     -3.56842130	      1.84249497	      0.46983973	      9.46856795	     35.36940275	     -6.27086489	    -18.09388504	    -37.14756556	     -6.09929283	      6.26067899	     19.18472920	      9.96359175	      1.20291605	      8.74280268
      4.48500000	    -11.88270302	      0.86063295	     -4.56056224	      0.21158953	     -0.00906296	      0.00347865	      1.15601616	      4.08019062	      5.26941393	     -3.59580380	      1.98699741	      0.66322422	      9.77437362	     35.40720962	     -6.10615491	    -18.40886489	    -35.83769540	     -6.10999014	      6.51745308	     18.88554836	      9.83016372	      1.10810922	      8.92778436
      4.49000000	    -11.96633205	      0.91697930	     -4.63140976	      0.21642579	     -0.00974629	      0.00364054	      0.97752498	      4.01334021	      5.30860553	     -3.64904545	      2.15627537	      0.69465456	      9.90091608	     35.64722245	     -5.92190567	    -18.56231726	    -34.53213310	     -6.21748417	      6.83062425	     18.73170592	      9.87361791	      1.02339792	      8.94049020
      4.49500000	    -11.95114196	      1.02013409	     -4.83040218	      0.22122568	     -0.01026242	      0.00390965	      0.70913090	      3.87876999	      5.39619218	     -3.70451679	      2.31788993	      0.92196183	     10.17932700	     35.72147053	     -5.76072847	    -18.89974112	    -33.17364572	     -6.36387379	      7.20195990	     18.54140470	      9.80616671	      0.92173883	      9.12997831
      4.50000000	    -12.05264401	      1.07688391	     -4.89345709	      0.22608859	     -0.01097349	      0.00402505	      0.55189176	      3.80478385	      5.42814958	     -3.76271946	      2.48063876	      0.97940306	     10.29830493	     35.94784079	     -5.56304176	    -19.06483015	    -31.82098948	     -6.56242066	      7.60101904	     18.41720853	      9.86900114	      0.84234472	      9.14027750
      4.50500000	    -12.08448304	      1.18082938	     -5.07889576	      0.23086768	     -0.01154766	      0.00429203	      0.34918639	      3.67039323	      5.49352446	     -3.84401807	      2.65422246	      1.22858695	     10.52554712	     36.05338930	     -5.40250397	    -19.45186441	    -30.43071126	     -6.84179050	      8.07671974	     18.32102958	      9.84529607	      0.73604827	      9.28346033
      4.51000000	    -12.15473432	      1.26112139	     -5.19824050	      0.23572724	     -0.01219184	      0.00446177	      0.17164837	      3.56001319	      5.51767429	     -3.91122429	      2.81252330	      1.42454380	     10.72197315	     36.19487854	     -5.20992784	    -19.71477625	    -29.02151678	     -7.13804089	      8.57575402	     18.26206615	      9.87142433	      0.64176176	      9.36139349
      4.51500000	    -12.19260180	      1.35042469	     -5.37386858	      0.24057387	     -0.01278953	      0.00467523	     -0.02419512	      3.43214923	      5.52669083	     -3.99725797	      2.97656580	      1.74093105	     11.00880985	     36.26549283	     -5.03209953	    -20.02169124	    -27.57170026	     -7.45178013	      9.11596328	     18.29742513	      9.86109988	      0.55406325	      9.53705037
      4.52000000	    -12.30986482	      1.42912398	     -5.45873407	      0.24544805	     -0.01348874	      0.00479465	     -0.14555856	      3.32241675	      5.53077359	     -4.07599141	      3.12341880	      1.92226251	     11.19369128	     36.44034892	     -4.81894380	    -20.28233109	    -26.14356782	     -7.82771759	      9.67172536	     18.27031978	      9.93540818	      0.45794404	      9.54645252
      4.52500000	    -12.40969469	      1.51694558	     -5.59550772	      0.25032372	     -0.01415127	      0.00495195	     -0.26933114	      3.19638032	      5.53739759	     -4.17731413	      3.27440355	      2.20799809	     11.42453531	     36.56156073	     -4.61886889	    -20.56770499	    -24.68241178	     -8.19414182	     10.28758207	     18.31806753	      9.98784901	      0.37015604	      9.65340516
      4.53000000	    -12.48460542	      1.60457112	     -5.76718510	      0.25520507	     -0.01478642	      0.00516895	     -0.40929080	      3.06741806	      5.50228770	     -4.29133002	      3.43226776	      2.58728051	     11.74769255	     36.62847006	     -4.43361164	    -20.85665666	    -23.19523733	     -8.56946237	     10.93332990	     18.46632517	     10.02036648	      0.28006418	      9.79908007
      4.53500000	    -12.60186144	      1.69136793	     -5.88971777	      0.26012216	     -0.01546848	      0.00530880	     -0.50879290	      2.93943741	      5.46788024	     -4.40230871	      3.56484562	      2.90243312	     12.05003392	     36.74070736	     -4.21615403	    -21.09339925	    -21.71524768	     -8.96266509	     11.57044888	     18.57358679	     10.09455112	      0.18676837	      9.86951318
      4.54000000	    -12.76591815	      1.77467084	     -5.95941426	      0.26507574	     -0.01620558	      0.00538399	     -0.56986563	      2.82041494	      5.45818747	     -4.50275048	      3.68036787	      3.09849614	     12.23218599	     36.90668401	     -3.96659848	    -21.24981227	    -20.25609397	     -9.35399751	     12.17970210	     18.55864161	     10.22202151	      0.08948375	      9.85368472
      4.54500000	    -12.86928121	      1.86420428	     -6.14193992	      0.26998803	     -0.01685736	      0.00558255	     -0.65355362	      2.68369856	      5.40331300	     -4.66178598	      3.82122701	      3.55993993	     12.58561879	     36.96100737	     -3.77393611	    -21.47074848	    -18.76125364	     -9.70809056	     12.86659530	     18.73963112	     10.27711824	      0.00957202	     10.01066520
      4.55000000	    -13.01133249	      1.95926747	     -6.25990334	      0.27497592	     -0.01755510	      0.00570645	     -0.71175886	      2.54353040	      5.34066562	     -4.80129515	      3.93376786	      3.92058056	     12.91583685	     37.05674282	     -3.53030359	    -21.57995544	    -17.27991957	    -10.09042234	     13.45044215	     18.83688432	     10.37968953	     -0.09003171	     10.06494070
      4.55500000	    -13.16511352	      2.05251644	     -6.38167108	      0.27997662	     -0.01826243	      0.00583650	     -0.75241686	      2.40704960	      5.28773406	     -4.95097636	      4.03898652	      4.27141536	     13.21944291	     37.15315532	     -3.28817536	    -21.62681775	    -15.81254739	    -10.45047922	     13.98506148	     18.87992328	     10.49402919	     -0.18598616	     10.11796078
      4.56000000	    -13.35006637	      2.14275681	     -6.46835717	      0.28502085	     -0.01900320	      0.00594402	     -0.77148525	      2.28176041	      5.28167574	     -5.09085658	      4.12065530	      4.48436704	     13.38675659	     37.27982378	     -3.02871549	    -21.57521345	    -14.37464443	    -10.79049803	     14.43945087	     18.79593489	     10.64542108	     -0.28699394	     10.11808581
      4.56500000	    -13.51490850	      2.25813322	     -6.61567426	      0.29007697	     -0.01970745	      0.00610796	     -0.78264227	      2.12242417	      5.24952056	     -5.27303431	      4.22811561	      4.85840354	     13.62004205	     37.35597018	     -2.78122101	    -21.54202165	    -12.93456325	    -11.11398271	     14.82969401	     18.74446264	     10.77604975	     -0.39801107	     10.19955343
      4.57000000	    -13.61883442	      2.35099919	     -6.77829757	      0.29512091	     -0.02034169	      0.00625512	     -0.83644721	      1.97215626	      5.04064496	     -5.48537486	      4.32180097	      5.47742164	     14.08013760	     37.34776914	     -2.55429226	    -21.42136582	    -11.49962845	    -11.43641973	     15.08825633	     18.79557114	     10.82845188	     -0.48225375	     10.32085684
      4.57500000	    -13.78196715	      2.46134100	     -6.94327826	      0.30021059	     -0.02105042	      0.00642658	     -0.83761160	      1.81714464	      5.04007231	     -5.68478185	      4.39779503	      5.82390692	     14.38764990	     37.39934671	     -2.32577191	    -21.25447737	    -10.11705142	    -11.71276720	     15.22503592	     18.66193181	     10.95332416	     -0.58336104	     10.39126283
      4.58000000	    -13.96279994	      2.57329770	     -7.07895622	      0.30539562	     -0.02178184	      0.00662471	     -0.83126356	      1.67373911	      5.05544970	     -5.88088950	      4.43958286	      6.02707010	     14.53705090	     37.47088006	     -2.09882474	    -21.09585567	     -8.80032699	    -11.93526993	     15.37705226	     18.48328162	     11.10748927	     -0.69626198	     10.43547793
      4.58500000	    -14.06745907	      2.67603062	     -7.27731886	      0.31049054	     -0.02241654	      0.00679199	     -0.86729811	      1.51241319	      4.95055721	     -6.12216849	      4.52415769	      6.58404492	     14.90700956	     37.44332796	     -1.90131969	    -20.85606283	     -7.51113449	    -12.17721188	     15.21991145	     18.24308561	     11.15967748	     -0.78348474	     10.56599178
